<svg xmlns="http://www.w3.org/2000/svg" width="512" height="512" viewBox="0 0 512 512" version="1.1"><path d="M 205.008 2.886 C 203.637 3.271, 201.957 4.692, 201.273 6.043 C 200.304 7.957, 200.026 32.877, 200.015 118.750 L 200 229 154 229 L 108 229 108 182.500 L 108 136 130.935 136 C 143.549 136, 155.032 135.558, 156.453 135.018 C 157.874 134.478, 159.421 133.015, 159.892 131.768 C 160.461 130.259, 159.159 118.622, 156 97 C 153.390 79.125, 150.689 60.484, 149.999 55.577 C 149.021 48.624, 148.230 46.140, 146.418 44.327 L 144.091 42 101.656 42 C 62.730 42, 59.043 42.145, 57.065 43.750 C 55.126 45.324, 54.299 49.704, 48.852 87.274 C 45.521 110.249, 43.055 130.085, 43.374 131.352 C 44.410 135.483, 47.599 136, 72.047 136 L 95 136 95 182.500 L 95 229 73.710 229 C 49.127 229, 43.550 229.978, 35 235.785 C 31.975 237.840, 28.076 241.647, 26.336 244.244 C 20.608 252.797, 20.561 254.660, 25.052 295.606 C 27.263 315.766, 28.944 332.372, 28.786 332.507 C 28.629 332.643, 26.475 333.774, 24 335.021 C 13.451 340.336, 5.395 349.744, 2.011 360.701 C -0.870 370.027, -0.902 391.808, 1.956 397.414 C 3.898 401.223, 3.898 401.280, 1.956 405.086 C 0.172 408.584, 0 411.077, 0 433.492 C 0 460.847, 0.290 462.413, 6.330 467.716 C 9.743 470.713, 12.345 471.606, 19.500 472.236 L 22.500 472.500 22.776 488.450 C 23.003 501.515, 23.348 504.727, 24.681 506.200 C 26.113 507.782, 28.143 508, 41.464 508 C 52.053 508, 57.108 507.623, 58.244 506.750 C 59.465 505.811, 70 475.085, 70 472.461 C 70 472.207, 75.625 472, 82.500 472 L 95 472 95 484 L 95 496 86 496 L 77 496 77 502 L 77 508 103 508 L 129 508 129 502 L 129 496 118.500 496 L 108 496 108 484 L 108 472 153.916 472 L 199.831 472 200.166 488.849 C 200.412 501.258, 200.862 506.133, 201.872 507.349 C 203.137 508.871, 215.225 509, 356.051 509 C 493.632 509, 509.014 508.843, 510.429 507.429 C 512.419 505.438, 512.358 515.727, 512.054 231.500 C 511.846 36.232, 511.617 5.296, 510.371 4 C 509.103 2.681, 490.737 2.481, 358.214 2.343 C 275.321 2.257, 206.379 2.501, 205.008 2.886 M 213 33.500 L 213 52 356.500 52 L 500 52 500 33.500 L 500 15 356.500 15 L 213 15 213 33.500 M 65.603 56.737 C 64.915 60.125, 56 121.658, 56 123.022 C 56 123.645, 72.571 124, 101.629 124 L 147.258 124 146.554 117.250 C 146.166 113.537, 143.970 97.900, 141.674 82.500 L 137.500 54.500 101.832 54.237 L 66.164 53.975 65.603 56.737 M 213 146.404 L 213 228.809 244.250 229.214 C 274.133 229.602, 275.760 229.722, 281.449 231.956 C 288.854 234.865, 296.511 241.829, 299.637 248.500 C 302.732 255.103, 302.657 261.786, 299.142 292.750 L 296.389 317 323.695 317 L 351 317 351 190.500 L 351 64 282 64 L 213 64 213 146.404 M 362 190.500 L 362 317 431 317 L 500 317 500 190.500 L 500 64 431 64 L 362 64 362 190.500 M 314.230 177.250 L 314.500 198.500 320 198.500 L 325.500 198.500 325.770 177.250 L 326.040 156 320 156 L 313.960 156 314.230 177.250 M 390 177.550 L 390 199.100 395.750 198.800 L 401.500 198.500 401.770 177.250 L 402.040 156 396.020 156 L 390 156 390 177.550 M 47.707 242.612 C 41.823 244.421, 35.525 250.437, 34.095 255.617 C 33.278 258.577, 33.895 266.673, 37.030 294.142 C 39.214 313.270, 41 329.163, 41 329.460 C 41 329.757, 95.430 330, 161.955 330 L 282.909 330 283.453 326.750 C 283.752 324.962, 285.610 308.799, 287.581 290.831 L 291.165 258.162 289.201 253.722 C 286.971 248.680, 282.347 244.739, 276.056 242.520 C 269.677 240.269, 55.048 240.356, 47.707 242.612 M 295 330.471 C 295 331.280, 297.379 333.067, 300.287 334.443 C 306.555 337.408, 313.160 342.857, 317.132 348.341 C 319.905 352.169, 320 352.212, 320 349.650 L 320 347 353.500 347 L 387 347 387 353 L 387 359 355.134 359 L 323.268 359 324.722 365.250 C 326.921 374.699, 326.172 393.461, 323.423 397.802 L 321.346 401.081 323.800 406.041 L 326.255 411 413.127 411 L 500 411 500 370 L 500 329 397.500 329 C 307.963 329, 295 329.186, 295 330.471 M 34.396 343.410 C 25.173 346.315, 17.445 353.692, 13.926 362.952 C 11.171 370.203, 11.105 390.880, 13.829 393.345 C 15.513 394.869, 27.312 395, 163.174 395 C 307.935 395, 310.723 394.964, 312.447 393.059 C 313.974 391.371, 314.157 389.442, 313.846 378.309 C 313.536 367.188, 313.167 364.845, 311.047 360.526 C 307.937 354.191, 301.884 348.138, 295.500 344.976 L 290.500 342.500 164.500 342.309 C 63.866 342.157, 37.674 342.378, 34.396 343.410 M 0.397 380 C 0.397 387.975, 0.553 391.238, 0.743 387.250 C 0.932 383.262, 0.932 376.738, 0.743 372.750 C 0.553 368.762, 0.397 372.025, 0.397 380 M 14 409 C 12.117 410.883, 12 412.333, 12 433.845 C 12 454.707, 12.159 456.834, 13.829 458.345 C 15.513 459.869, 27.318 460, 163.272 460 L 310.887 460 312.443 457.777 C 313.739 455.927, 314 451.822, 314 433.277 C 314 412.333, 313.880 410.880, 312 409 C 310.018 407.018, 308.667 407, 163 407 C 17.333 407, 15.982 407.018, 14 409 M 0.436 433.500 C 0.436 447.800, 0.577 453.511, 0.748 446.191 C 0.919 438.871, 0.918 427.171, 0.747 420.191 C 0.575 413.211, 0.435 419.200, 0.436 433.500 M 326 435 L 326 447 356.500 447 L 387 447 387 453 L 387 459 356.250 459.037 L 325.500 459.073 322.720 463.462 C 319.865 467.971, 313.477 472, 309.184 472 C 307.055 472, 307 472.315, 307 484.500 L 307 497 403.500 497 L 500 497 500 460 L 500 423 413 423 L 326 423 326 435 M 35 484 L 35 496 42.465 496 L 49.929 496 53.465 484.835 C 55.409 478.694, 57 473.294, 57 472.835 C 57 472.376, 52.050 472, 46 472 L 35 472 35 484 M 213 484.500 L 213 497 240.559 497 C 255.716 497, 267.919 496.663, 267.676 496.250 C 267.433 495.837, 265.590 490.212, 263.582 483.750 L 259.931 472 236.466 472 L 213 472 213 484.500 M 273.020 473.250 C 273.031 473.938, 274.544 479.225, 276.381 485 L 279.721 495.500 287.361 495.792 L 295 496.084 295 484.042 L 295 472 284 472 C 275.856 472, 273.005 472.325, 273.020 473.250" stroke="none" fill="#070605" fill-rule="evenodd"/><path d="M 213 33.500 L 213 52 356.500 52 L 500 52 500 33.500 L 500 15 356.500 15 L 213 15 213 33.500 M 65.603 56.737 C 64.915 60.125, 56 121.658, 56 123.022 C 56 123.645, 72.571 124, 101.629 124 L 147.258 124 146.554 117.250 C 146.166 113.537, 143.970 97.900, 141.674 82.500 L 137.500 54.500 101.832 54.237 L 66.164 53.975 65.603 56.737 M 213 146.404 L 213 228.809 244.250 229.214 C 274.133 229.602, 275.760 229.722, 281.449 231.956 C 288.854 234.865, 296.511 241.829, 299.637 248.500 C 302.732 255.103, 302.657 261.786, 299.142 292.750 L 296.389 317 323.695 317 L 351 317 351 190.500 L 351 64 282 64 L 213 64 213 146.404 M 362 190.500 L 362 317 431 317 L 500 317 500 190.500 L 500 64 431 64 L 362 64 362 190.500 M 314.230 177.250 L 314.500 198.500 320 198.500 L 325.500 198.500 325.770 177.250 L 326.040 156 320 156 L 313.960 156 314.230 177.250 M 390 177.550 L 390 199.100 395.750 198.800 L 401.500 198.500 401.770 177.250 L 402.040 156 396.020 156 L 390 156 390 177.550 M 47.707 242.612 C 41.823 244.421, 35.525 250.437, 34.095 255.617 C 33.278 258.577, 33.895 266.673, 37.030 294.142 C 39.214 313.270, 41 329.163, 41 329.460 C 41 329.757, 95.430 330, 161.955 330 L 282.909 330 283.453 326.750 C 283.752 324.962, 285.610 308.799, 287.581 290.831 L 291.165 258.162 289.201 253.722 C 286.971 248.680, 282.347 244.739, 276.056 242.520 C 269.677 240.269, 55.048 240.356, 47.707 242.612 M 295 330.471 C 295 331.280, 297.379 333.067, 300.287 334.443 C 306.555 337.408, 313.160 342.857, 317.132 348.341 C 319.905 352.169, 320 352.212, 320 349.650 L 320 347 353.500 347 L 387 347 387 353 L 387 359 355.134 359 L 323.268 359 324.722 365.250 C 326.921 374.699, 326.172 393.461, 323.423 397.802 L 321.346 401.081 323.800 406.041 L 326.255 411 413.127 411 L 500 411 500 370 L 500 329 397.500 329 C 307.963 329, 295 329.186, 295 330.471 M 34.396 343.410 C 25.173 346.315, 17.445 353.692, 13.926 362.952 C 11.171 370.203, 11.105 390.880, 13.829 393.345 C 15.513 394.869, 27.312 395, 163.174 395 C 307.935 395, 310.723 394.964, 312.447 393.059 C 313.974 391.371, 314.157 389.442, 313.846 378.309 C 313.536 367.188, 313.167 364.845, 311.047 360.526 C 307.937 354.191, 301.884 348.138, 295.500 344.976 L 290.500 342.500 164.500 342.309 C 63.866 342.157, 37.674 342.378, 34.396 343.410 M 14 409 C 12.117 410.883, 12 412.333, 12 433.845 C 12 454.707, 12.159 456.834, 13.829 458.345 C 15.513 459.869, 27.318 460, 163.272 460 L 310.887 460 312.443 457.777 C 313.739 455.927, 314 451.822, 314 433.277 C 314 412.333, 313.880 410.880, 312 409 C 310.018 407.018, 308.667 407, 163 407 C 17.333 407, 15.982 407.018, 14 409 M 326 435 L 326 447 356.500 447 L 387 447 387 453 L 387 459 356.250 459.037 L 325.500 459.073 322.720 463.462 C 319.865 467.971, 313.477 472, 309.184 472 C 307.055 472, 307 472.315, 307 484.500 L 307 497 403.500 497 L 500 497 500 460 L 500 423 413 423 L 326 423 326 435 M 35 484 L 35 496 42.465 496 L 49.929 496 53.465 484.835 C 55.409 478.694, 57 473.294, 57 472.835 C 57 472.376, 52.050 472, 46 472 L 35 472 35 484 M 213 484.500 L 213 497 240.559 497 C 255.716 497, 267.919 496.663, 267.676 496.250 C 267.433 495.837, 265.590 490.212, 263.582 483.750 L 259.931 472 236.466 472 L 213 472 213 484.500 M 273.020 473.250 C 273.031 473.938, 274.544 479.225, 276.381 485 L 279.721 495.500 287.361 495.792 L 295 496.084 295 484.042 L 295 472 284 472 C 275.856 472, 273.005 472.325, 273.020 473.250" stroke="none" fill="#b57d49" fill-rule="evenodd"/></svg>